<mxfile host="Electron" agent="Mozilla/5.0 (Windows NT 10.0; Win64; x64) AppleWebKit/537.36 (KHTML, like Gecko) draw.io/26.1.1 Chrome/132.0.6834.210 Electron/34.3.3 Safari/537.36" version="26.1.1">
  <diagram id="C5RBs43oDa-KdzZeNtuy" name="Page-1">
    <mxGraphModel dx="1020" dy="504" grid="1" gridSize="10" guides="1" tooltips="1" connect="1" arrows="1" fold="1" page="1" pageScale="1" pageWidth="827" pageHeight="1169" math="0" shadow="0">
      <root>
        <mxCell id="WIyWlLk6GJQsqaUBKTNV-0" />
        <mxCell id="WIyWlLk6GJQsqaUBKTNV-1" parent="WIyWlLk6GJQsqaUBKTNV-0" />
        <mxCell id="AOaadNG6hdJLpvKNnxBq-0" style="edgeStyle=orthogonalEdgeStyle;rounded=0;orthogonalLoop=1;jettySize=auto;html=1;exitX=0.5;exitY=1;exitDx=0;exitDy=0;entryX=0.5;entryY=0;entryDx=0;entryDy=0;" parent="WIyWlLk6GJQsqaUBKTNV-1" source="AOaadNG6hdJLpvKNnxBq-1" target="AOaadNG6hdJLpvKNnxBq-4" edge="1">
          <mxGeometry relative="1" as="geometry" />
        </mxCell>
        <mxCell id="AOaadNG6hdJLpvKNnxBq-1" value="" style="rounded=1;whiteSpace=wrap;html=1;" parent="WIyWlLk6GJQsqaUBKTNV-1" vertex="1">
          <mxGeometry x="265" y="140" width="120" height="60" as="geometry" />
        </mxCell>
        <mxCell id="AOaadNG6hdJLpvKNnxBq-2" value="Inicio" style="text;html=1;align=center;verticalAlign=middle;whiteSpace=wrap;rounded=0;" parent="WIyWlLk6GJQsqaUBKTNV-1" vertex="1">
          <mxGeometry x="295" y="155" width="60" height="30" as="geometry" />
        </mxCell>
        <mxCell id="AOaadNG6hdJLpvKNnxBq-3" style="edgeStyle=orthogonalEdgeStyle;rounded=0;orthogonalLoop=1;jettySize=auto;html=1;exitX=0.5;exitY=1;exitDx=0;exitDy=0;" parent="WIyWlLk6GJQsqaUBKTNV-1" source="AOaadNG6hdJLpvKNnxBq-4" edge="1">
          <mxGeometry relative="1" as="geometry">
            <mxPoint x="325" y="320" as="targetPoint" />
          </mxGeometry>
        </mxCell>
        <mxCell id="AOaadNG6hdJLpvKNnxBq-4" value="" style="rounded=0;whiteSpace=wrap;html=1;" parent="WIyWlLk6GJQsqaUBKTNV-1" vertex="1">
          <mxGeometry x="265" y="240" width="120" height="60" as="geometry" />
        </mxCell>
        <mxCell id="AOaadNG6hdJLpvKNnxBq-5" value="declarar variables a y b como enteros" style="text;html=1;align=center;verticalAlign=middle;whiteSpace=wrap;rounded=0;" parent="WIyWlLk6GJQsqaUBKTNV-1" vertex="1">
          <mxGeometry x="270" y="255" width="110" height="30" as="geometry" />
        </mxCell>
        <mxCell id="B_7hZ-ej9ax_e6SP-rg2-0" style="edgeStyle=orthogonalEdgeStyle;rounded=0;orthogonalLoop=1;jettySize=auto;html=1;exitX=0.5;exitY=1;exitDx=0;exitDy=0;entryX=0.5;entryY=0;entryDx=0;entryDy=0;" edge="1" parent="WIyWlLk6GJQsqaUBKTNV-1" source="AOaadNG6hdJLpvKNnxBq-7" target="AOaadNG6hdJLpvKNnxBq-18">
          <mxGeometry relative="1" as="geometry" />
        </mxCell>
        <mxCell id="AOaadNG6hdJLpvKNnxBq-7" value="" style="shape=manualInput;whiteSpace=wrap;html=1;" parent="WIyWlLk6GJQsqaUBKTNV-1" vertex="1">
          <mxGeometry x="250" y="420" width="150" height="80" as="geometry" />
        </mxCell>
        <mxCell id="AOaadNG6hdJLpvKNnxBq-8" value="Introduzca el primer numero (a)" style="text;html=1;align=center;verticalAlign=middle;whiteSpace=wrap;rounded=0;" parent="WIyWlLk6GJQsqaUBKTNV-1" vertex="1">
          <mxGeometry x="261" y="460" width="124" height="30" as="geometry" />
        </mxCell>
        <mxCell id="AOaadNG6hdJLpvKNnxBq-9" style="edgeStyle=orthogonalEdgeStyle;rounded=0;orthogonalLoop=1;jettySize=auto;html=1;exitX=0.5;exitY=1;exitDx=0;exitDy=0;entryX=0.5;entryY=0;entryDx=0;entryDy=0;" parent="WIyWlLk6GJQsqaUBKTNV-1" source="AOaadNG6hdJLpvKNnxBq-10" target="AOaadNG6hdJLpvKNnxBq-7" edge="1">
          <mxGeometry relative="1" as="geometry" />
        </mxCell>
        <mxCell id="AOaadNG6hdJLpvKNnxBq-10" value="" style="shape=parallelogram;perimeter=parallelogramPerimeter;whiteSpace=wrap;html=1;fixedSize=1;" parent="WIyWlLk6GJQsqaUBKTNV-1" vertex="1">
          <mxGeometry x="215" y="325" width="220" height="60" as="geometry" />
        </mxCell>
        <mxCell id="AOaadNG6hdJLpvKNnxBq-11" value="Mostrar en pantalla &quot;Ingrese dos numeros&quot;" style="text;html=1;align=center;verticalAlign=middle;whiteSpace=wrap;rounded=0;" parent="WIyWlLk6GJQsqaUBKTNV-1" vertex="1">
          <mxGeometry x="255" y="340" width="145" height="30" as="geometry" />
        </mxCell>
        <mxCell id="AOaadNG6hdJLpvKNnxBq-15" value="" style="rounded=1;whiteSpace=wrap;html=1;" parent="WIyWlLk6GJQsqaUBKTNV-1" vertex="1">
          <mxGeometry x="493" y="480" width="120" height="60" as="geometry" />
        </mxCell>
        <mxCell id="AOaadNG6hdJLpvKNnxBq-16" value="Fin" style="text;html=1;align=center;verticalAlign=middle;whiteSpace=wrap;rounded=0;" parent="WIyWlLk6GJQsqaUBKTNV-1" vertex="1">
          <mxGeometry x="521" y="495" width="60" height="30" as="geometry" />
        </mxCell>
        <mxCell id="AOaadNG6hdJLpvKNnxBq-18" value="" style="shape=manualInput;whiteSpace=wrap;html=1;" parent="WIyWlLk6GJQsqaUBKTNV-1" vertex="1">
          <mxGeometry x="252.5" y="520" width="150" height="80" as="geometry" />
        </mxCell>
        <mxCell id="B_7hZ-ej9ax_e6SP-rg2-3" style="edgeStyle=orthogonalEdgeStyle;rounded=0;orthogonalLoop=1;jettySize=auto;html=1;entryX=0.5;entryY=0;entryDx=0;entryDy=0;" edge="1" parent="WIyWlLk6GJQsqaUBKTNV-1" source="AOaadNG6hdJLpvKNnxBq-19" target="B_7hZ-ej9ax_e6SP-rg2-2">
          <mxGeometry relative="1" as="geometry" />
        </mxCell>
        <mxCell id="AOaadNG6hdJLpvKNnxBq-19" value="Introduzca el segundo numero (b)" style="text;html=1;align=center;verticalAlign=middle;whiteSpace=wrap;rounded=0;" parent="WIyWlLk6GJQsqaUBKTNV-1" vertex="1">
          <mxGeometry x="265.5" y="560" width="124" height="30" as="geometry" />
        </mxCell>
        <mxCell id="B_7hZ-ej9ax_e6SP-rg2-2" value="" style="ellipse;whiteSpace=wrap;html=1;aspect=fixed;" vertex="1" parent="WIyWlLk6GJQsqaUBKTNV-1">
          <mxGeometry x="307.5" y="630" width="40" height="40" as="geometry" />
        </mxCell>
        <mxCell id="B_7hZ-ej9ax_e6SP-rg2-4" value="" style="rounded=0;whiteSpace=wrap;html=1;" vertex="1" parent="WIyWlLk6GJQsqaUBKTNV-1">
          <mxGeometry x="493" y="285" width="120" height="60" as="geometry" />
        </mxCell>
        <mxCell id="B_7hZ-ej9ax_e6SP-rg2-8" style="edgeStyle=orthogonalEdgeStyle;rounded=0;orthogonalLoop=1;jettySize=auto;html=1;entryX=0.5;entryY=0;entryDx=0;entryDy=0;" edge="1" parent="WIyWlLk6GJQsqaUBKTNV-1" source="B_7hZ-ej9ax_e6SP-rg2-5" target="B_7hZ-ej9ax_e6SP-rg2-7">
          <mxGeometry relative="1" as="geometry" />
        </mxCell>
        <mxCell id="B_7hZ-ej9ax_e6SP-rg2-5" value="Sumar a+b" style="text;html=1;align=center;verticalAlign=middle;whiteSpace=wrap;rounded=0;" vertex="1" parent="WIyWlLk6GJQsqaUBKTNV-1">
          <mxGeometry x="523" y="300" width="60" height="30" as="geometry" />
        </mxCell>
        <mxCell id="B_7hZ-ej9ax_e6SP-rg2-10" style="edgeStyle=orthogonalEdgeStyle;rounded=0;orthogonalLoop=1;jettySize=auto;html=1;exitX=0.5;exitY=1;exitDx=0;exitDy=0;entryX=0.5;entryY=0;entryDx=0;entryDy=0;" edge="1" parent="WIyWlLk6GJQsqaUBKTNV-1" source="B_7hZ-ej9ax_e6SP-rg2-7" target="AOaadNG6hdJLpvKNnxBq-15">
          <mxGeometry relative="1" as="geometry" />
        </mxCell>
        <mxCell id="B_7hZ-ej9ax_e6SP-rg2-7" value="" style="shape=parallelogram;perimeter=parallelogramPerimeter;whiteSpace=wrap;html=1;fixedSize=1;" vertex="1" parent="WIyWlLk6GJQsqaUBKTNV-1">
          <mxGeometry x="493" y="380" width="120" height="60" as="geometry" />
        </mxCell>
        <mxCell id="B_7hZ-ej9ax_e6SP-rg2-9" value="Mostrar resultado de &quot;a+b&quot;" style="text;html=1;align=center;verticalAlign=middle;whiteSpace=wrap;rounded=0;" vertex="1" parent="WIyWlLk6GJQsqaUBKTNV-1">
          <mxGeometry x="523" y="390" width="60" height="30" as="geometry" />
        </mxCell>
        <mxCell id="B_7hZ-ej9ax_e6SP-rg2-12" style="edgeStyle=orthogonalEdgeStyle;rounded=0;orthogonalLoop=1;jettySize=auto;html=1;exitX=0.5;exitY=1;exitDx=0;exitDy=0;" edge="1" parent="WIyWlLk6GJQsqaUBKTNV-1" source="B_7hZ-ej9ax_e6SP-rg2-11">
          <mxGeometry relative="1" as="geometry">
            <mxPoint x="551" y="280" as="targetPoint" />
          </mxGeometry>
        </mxCell>
        <mxCell id="B_7hZ-ej9ax_e6SP-rg2-11" value="" style="ellipse;whiteSpace=wrap;html=1;aspect=fixed;" vertex="1" parent="WIyWlLk6GJQsqaUBKTNV-1">
          <mxGeometry x="528.5" y="200" width="45" height="45" as="geometry" />
        </mxCell>
        <mxCell id="B_7hZ-ej9ax_e6SP-rg2-13" value="&lt;h1 style=&quot;margin-top: 0px;&quot;&gt;&lt;div&gt;&lt;font style=&quot;font-size: 14px;&quot;&gt;Randy Paniagua&lt;/font&gt;&lt;/div&gt;&lt;/h1&gt;" style="text;html=1;whiteSpace=wrap;overflow=hidden;rounded=0;" vertex="1" parent="WIyWlLk6GJQsqaUBKTNV-1">
          <mxGeometry x="492.63" y="135" width="116.75" height="50" as="geometry" />
        </mxCell>
      </root>
    </mxGraphModel>
  </diagram>
</mxfile>
